<svg xmlns="http://www.w3.org/2000/svg" width="31.479" height="31.482" viewBox="0 0 31.479 31.482"><defs><style>.a{fill:#fff;}</style></defs><path class="a" d="M10440.611-215.13a15.639,15.639,0,0,1-4.61-11.131,15.639,15.639,0,0,1,4.61-11.131,15.638,15.638,0,0,1,11.128-4.61,15.644,15.644,0,0,1,11.13,4.61,15.635,15.635,0,0,1,4.61,11.131,15.635,15.635,0,0,1-4.61,11.131,15.644,15.644,0,0,1-11.13,4.61A15.638,15.638,0,0,1,10440.611-215.13Zm-2.112-11.131a13.255,13.255,0,0,0,13.24,13.24,13.256,13.256,0,0,0,13.24-13.24,13.256,13.256,0,0,0-13.24-13.24A13.255,13.255,0,0,0,10438.5-226.26Zm13.668,7.637c-.031,0-.058,0-.084,0a1.248,1.248,0,0,1-.885-.368l-4.829-4.828a1.245,1.245,0,0,1,0-1.768,1.247,1.247,0,0,1,1.766,0l2.866,2.866v-10.032a1.248,1.248,0,0,1,1.25-1.248,1.245,1.245,0,0,1,1.248,1.248v9.862l2.7-2.7a1.249,1.249,0,0,1,1.768,0,1.25,1.25,0,0,1,0,1.768l-4.828,4.828a1.256,1.256,0,0,1-.886.368C10452.223-218.621,10452.193-218.621,10452.167-218.624Z" transform="translate(-10436.001 242.001)"/></svg>