<svg xmlns="http://www.w3.org/2000/svg" xmlns:xlink="http://www.w3.org/1999/xlink" width="59.113" height="64" viewBox="0 0 59.113 64"><defs><style>.a{fill:url(#a);}</style><linearGradient id="a" x1="0.609" y1="0.807" x2="0.134" y2="0.193" gradientUnits="objectBoundingBox"><stop offset="0" stop-color="#ffc300"/><stop offset="1" stop-color="#ffe181"/></linearGradient></defs><path class="a" d="M26.7,63.741.312,28.552C-.538,23.7.49,19.247,1.683,17.816L28.408,53.449c-.836.881-1.588,3.574-1.675,6.656,0,1.147-.213,1.879.725,1.64L58.328,45.568l.4.383a.97.97,0,0,1-.219,1.561L27.525,63.925a.638.638,0,0,1-.3.075A.651.651,0,0,1,26.7,63.741Zm2.289-5.824L57.888,42.765l.424.811L29.419,58.726Zm.8-4.094,27.983-14.67.423.809L30.218,54.634ZM3.281,15.3,31.984.187a1.62,1.62,0,0,1,2.049.461l24.756,33.01a1.619,1.619,0,0,1-.541,2.4L30.007,50.937Z" transform="translate(0)"/></svg>