<svg xmlns="http://www.w3.org/2000/svg" xmlns:xlink="http://www.w3.org/1999/xlink" width="55.312" height="64" viewBox="0 0 55.312 64"><defs><style>.a{fill:url(#a);}</style><linearGradient id="a" x1="0.609" y1="0.807" x2="0.134" y2="0.193" gradientUnits="objectBoundingBox"><stop offset="0" stop-color="#ffc300"/><stop offset="1" stop-color="#ffe181"/></linearGradient></defs><path class="a" d="M89.861,36.941,84.685,25.968c.014-.328.025-.656.025-.986a24.978,24.978,0,1,0-40.874,19.27V53.08a2.149,2.149,0,0,0,1.307,1.977l20.688,8.775a2.143,2.143,0,0,0,2.985-1.973V54.377a2.147,2.147,0,0,1,2.145-2.147h10.6A2.146,2.146,0,0,0,83.7,50.086V43.634A2.146,2.146,0,0,1,84.912,41.7l3.947-1.916A2.147,2.147,0,0,0,89.861,36.941ZM59.914,46.336a2.827,2.827,0,0,1-2.49-1.486H62.4A2.824,2.824,0,0,1,59.914,46.336Zm5.043-5.5a1.106,1.106,0,0,1-.484.914,1.106,1.106,0,0,1-.623,2.022H55.925A1.106,1.106,0,0,1,55.3,41.75a1.1,1.1,0,0,1-.006-1.824,1.105,1.105,0,0,1,.629-2.016h7.924a1.105,1.105,0,0,1,.629,2.016A1.109,1.109,0,0,1,64.956,40.835Zm1.361-9.117c-1.842,1.221-2.008,2.129-2.008,4.406H55.462c0-2.277-.164-3.186-2.008-4.406a11.682,11.682,0,1,1,12.864,0Z" transform="translate(-34.755 -0.003)"/></svg>