<svg xmlns="http://www.w3.org/2000/svg" xmlns:xlink="http://www.w3.org/1999/xlink" width="312" height="299" viewBox="0 0 312 299"><defs><linearGradient id="a" x1="1.377" y1="-0.527" x2="0.754" y2="0.352" gradientUnits="objectBoundingBox"><stop offset="0" stop-color="#ffc300"/><stop offset="0.573" stop-color="#ffc300" stop-opacity="0.2"/><stop offset="1" stop-color="#ffc300" stop-opacity="0.031"/></linearGradient><linearGradient id="b" x1="1.09" y1="-0.096" x2="0.899" y2="0.232" gradientUnits="objectBoundingBox"><stop offset="0" stop-color="#ffc300"/><stop offset="1" stop-color="#ffe181" stop-opacity="0"/></linearGradient></defs><g transform="translate(8375 -1191)"><rect width="312" height="299" rx="8" transform="translate(-8375 1191)" fill="url(#a)"/><path d="M8,2A6.007,6.007,0,0,0,2,8V291a6.007,6.007,0,0,0,6,6H304a6.007,6.007,0,0,0,6-6V8a6.007,6.007,0,0,0-6-6H8M8,0H304a8,8,0,0,1,8,8V291a8,8,0,0,1-8,8H8a8,8,0,0,1-8-8V8A8,8,0,0,1,8,0Z" transform="translate(-8375 1191)" fill="url(#b)"/></g></svg>