<svg xmlns="http://www.w3.org/2000/svg" width="59.025" height="33.188" viewBox="0 0 59.025 33.188"><path d="M57.094,33.857l.548-1.216-.011-.012-1.21.554-.2-.787,1.331-.1.006-.017-1.064-.742.579-.578.714,1.08.012-.012.123-1.33.809.214-.571,1.2.012.012,1.22-.553.209.792-1.348.117-.012.012,1.1.737-.578.578-.772-1.08-.011.012-.089,1.331ZM29.206,16.89h-.045L27.88,20.336,25.947,19.2l2.4-2.8-.023-.045L24.8,16.98V14.72l3.506.715v-.044l-2.36-2.842,2-1.163,1.236,3.468h.045l1.3-3.468,1.956,1.141-2.406,2.864v.044l3.6-.715v2.26l-3.618-.6v.045L32.488,19.2l-1.978,1.14ZM1.334,12.774l.622-1.156-.011-.012-1.226.46-.145-.786,1.314-.007.006-.016-.993-.8.607-.527.626,1.11.013-.011.212-1.3.779.266L2.5,11.137l.01.012,1.237-.46.15.793L2.563,11.5l-.013.01,1.033.8-.608.528-.683-1.113-.012.01-.179,1.3ZM53.06,3.916l-.025-.011-1.24,1.482-.783-.933,1.7-.92-.016-.019L50.732,3.16l.423-1.174,1.713,1,.019-.015-.663-1.884,1.2-.207V2.9l.016.018,1.237-1.542.783.933-1.7,1,.015.018,1.965.305-.422,1.157-1.732-.971-.018.015.664,1.868-1.193.2Z" transform="translate(-0.574 -0.884)" fill="#ffc300"/></svg>