<svg xmlns="http://www.w3.org/2000/svg" width="17.342" height="17.342" viewBox="0 0 17.342 17.342"><g transform="translate(-2 -2)"><path d="M2.549,14.14H18.794c.069-.623.135-1.324.21-2.114l.2-2.112c.156-1.658.234-2.488-.05-2.83a.861.861,0,0,0-.585-.319c-.412-.036-.931.553-1.967,1.733-.536.61-.8.915-1.1.962a.8.8,0,0,1-.487-.078c-.276-.139-.46-.516-.828-1.27l-1.94-3.975C11.548,2.712,11.2,2,10.671,2S9.794,2.712,9.1,4.137L7.159,8.112c-.368.754-.552,1.131-.828,1.27a.8.8,0,0,1-.487.078c-.3-.047-.567-.352-1.1-.962C3.706,7.318,3.188,6.728,2.775,6.764a.86.86,0,0,0-.585.319c-.284.343-.206,1.172-.05,2.83l.2,2.112C2.413,12.816,2.479,13.517,2.549,14.14Z" transform="translate(0)" fill="#8d8d8d" fill-rule="evenodd" opacity="0.5"/><path d="M11.934,21.2c3.074,0,4.611,0,5.636-1.049.792-.811,1.07-2.034,1.307-4.154H2.633c.236,2.12.514,3.343,1.307,4.154C4.965,21.2,6.5,21.2,9.576,21.2Z" transform="translate(-0.084 -1.86)" fill="#fff"/></g></svg>