<svg xmlns="http://www.w3.org/2000/svg" width="65.242" height="31.471" viewBox="0 0 65.242 31.471"><path d="M38.508,28.958l0-.005L26.286,16.736s0,.026,7.709.026a6.436,6.436,0,0,0,4.461-1.424l8.785-8.785a1.736,1.736,0,0,1,1.151-.434H62.834L52.771,16.225a1.732,1.732,0,0,1-1.232.511l-9.28,0c-1.236.027-1.09,1.143-.686,1.576.27.288,11.1,11.105,12.138,12.138v.015l-12.163.009A4.035,4.035,0,0,1,38.508,28.958ZM0,24.351,10.064,14.246a1.732,1.732,0,0,1,1.232-.511l9.28,0c1.236-.026,1.09-1.143.686-1.576-.27-.288-11.1-11.1-12.138-12.138V.009L21.286,0a4.033,4.033,0,0,1,3.04,1.514l0,0L36.548,13.735s0-.026-7.709-.026a6.436,6.436,0,0,0-4.461,1.424l-8.785,8.785a1.736,1.736,0,0,1-1.151.434Z" transform="translate(1.204 0.5)" fill="#ffc300" stroke="rgba(0,0,0,0)" stroke-miterlimit="10" stroke-width="1"/></svg>