<svg xmlns="http://www.w3.org/2000/svg" width="751.285" height="219.162" viewBox="0 0 751.285 219.162"><path d="M1698.6,735.441h-5.854v-2h4.854v-2.146h2v3.146A1,1,0,0,1,1698.6,735.441Zm-9.854,0h-9v-2h9Zm-13,0h-9v-2h9Zm-13,0h-9v-2h9Zm-13,0h-9v-2h9Zm-13,0h-9v-2h9Zm-13,0h-9v-2h9Zm-13,0h-9v-2h9Zm-13,0h-9v-2h9Zm-13,0h-9v-2h9Zm-13,0h-9v-2h9Zm-13,0h-9v-2h9Zm-13,0h-9v-2h9Zm-13,0h-9v-2h9Zm-13,0h-9v-2h9Zm-13,0h-9v-2h9Zm-13,0h-9v-2h9Zm-13,0h-9v-2h9Zm-13,0h-9v-2h9Zm-13,0h-9v-2h9Zm-13,0h-9v-2h9Zm-13,0h-9v-2h9Zm-13,0h-9v-2h9Zm-13,0h-9v-2h9Zm-13,0h-9v-2h9Zm-13,0h-9v-2h9Zm-13,0h-9v-2h9Zm-13,0h-9v-2h9Zm-13,0h-9v-2h9Zm-13,0h-9v-2h9Zm-13,0h-9v-2h9Zm-13,0h-9v-2h9Zm-13,0h-9v-2h9Zm-13,0h-9v-2h9Zm-13,0h-9v-2h9Zm-13,0h-9v-2h9Zm-13,0h-9v-2h9Zm-13,0h-9v-2h9Zm-13,0h-9v-2h9Zm-13,0h-9v-2h9Zm-13,0h-9v-2h9Zm-13,0h-9v-2h9Zm-13,0h-9v-2h9Zm-13,0h-9v-2h9Zm-13,0h-9v-2h9Zm-13,0h-9v-2h9Zm-13,0h-9v-2h9Zm-13,0h-9v-2h9Zm-13,0h-9v-2h9Zm-13,0h-9v-2h9Zm-13,0h-9v-2h9Zm-13,0h-9v-2h9Zm-13,0h-9v-2h9Zm-13,0h-9v-2h9Zm-13,0h-9v-2h9Zm-13,0H979.03a1,1,0,0,1-1-.987l-.016-1.287,2-.025,0,.3h6.726Zm-8.779-6.274-.113-9,2-.025.113,9Zm721.633-1.872h-2v-9h2ZM977.8,716.168l-.113-9,2-.025.113,9Zm721.8-1.873h-2v-9h2ZM977.639,703.169l-.113-9,2-.025.113,9Zm721.959-1.874h-2v-9h2ZM977.476,690.17l-.113-9,2-.025.113,9Zm722.121-1.875h-2v-9h2ZM977.313,677.171l-.113-9,2-.025.113,9Zm722.284-1.876h-2v-9h2ZM977.151,664.172l-.113-9,2-.025.113,9Zm722.447-1.877h-2v-9h2Zm-722.61-11.122-.113-9,2-.025.113,9Zm722.61-1.878h-2v-9h2ZM976.825,638.174l-.113-9,2-.025.113,9Zm722.772-1.879h-2v-9h2Zm-722.935-11.12-.113-9,2-.025.113,9Zm722.935-1.88h-2v-9h2ZM976.5,612.176l-.113-9,2-.025.113,9Zm-.163-13-.113-9,2-.025.113,9Zm-.163-13-.113-9,2-.025.113,9Zm-.163-13-.113-9,2-.025.113,9Zm-.163-13-.113-9,2-.025.113,9Zm-.163-13-.113-9,2-.025.113,9Zm-.163-13-.113-9,2-.025.113,9Zm-.163-13-.036-2.9-4.118.009,0-2,5.108-.011h0a1,1,0,0,1,1,.987l.049,3.892Zm-27.044-2.844,0-2,5.89-.013,0,2Zm9.89-.021,0-2,9-.019,0,2Z" transform="translate(-948.312 -516.279)" fill="#0ef"/></svg>