<svg xmlns="http://www.w3.org/2000/svg" xmlns:xlink="http://www.w3.org/1999/xlink" width="64.068" height="64.066" viewBox="0 0 64.068 64.066"><defs><style>.a{fill:url(#a);}</style><linearGradient id="a" x1="0.609" y1="0.807" x2="0.134" y2="0.193" gradientUnits="objectBoundingBox"><stop offset="0" stop-color="#ffc300"/><stop offset="1" stop-color="#ffe181"/></linearGradient></defs><path class="a" d="M1.286,62.781A4.384,4.384,0,0,1,4.444,55.3L7.61,52.128l5.522-25.735a7.851,7.851,0,0,1,4.723-5.858S28.764,15.652,33.7,12.691l8.2,8.2,1.28,1.282,8.2,8.2c-2.964,4.936-7.85,15.843-7.85,15.843a7.863,7.863,0,0,1-5.856,4.721L11.938,56.457,8.77,59.626a4.384,4.384,0,0,1-7.484,3.155ZM26.262,30.3a5.3,5.3,0,0,0-.453,6.986L6.958,56.131a4.584,4.584,0,0,1,.532.447,4.823,4.823,0,0,1,.447.532l18.85-18.849a5.308,5.308,0,1,0-.525-7.965ZM44.295,19.673,42.32,17.7l-8.3-8.3L36.4,7.032A5.184,5.184,0,0,0,40.937,5.65C42.911,3.675,46.588,0,46.588,0L64.068,17.481l-5.65,5.648a5.187,5.187,0,0,0-1.384,4.544l-2.369,2.369Z"/></svg>