<svg xmlns="http://www.w3.org/2000/svg" width="12.761" height="15.321" viewBox="0 0 12.761 15.321"><path d="M2691.381-226.679h-4.912c-1.3,0-1.888-1.89-1.137-3.226a6.318,6.318,0,0,1,3-2.8,5.293,5.293,0,0,0,3.045.96,5.3,5.3,0,0,0,3.045-.96,6.327,6.327,0,0,1,3,2.8c.751,1.336.162,3.226-1.137,3.226Zm-4.018-10.342v-.962a4.017,4.017,0,0,1,4.018-4.017,4.016,4.016,0,0,1,4.016,4.017v.962a4.016,4.016,0,0,1-4.016,4.018A4.017,4.017,0,0,1,2687.363-237.021Z" transform="translate(-2685 242)" fill="#ffc300"/></svg>